<?xml version="1.0" encoding="UTF-8"?>
<svg xmlns="http://www.w3.org/2000/svg" version="1.1" viewBox="0 0 172.98 162.89">
  <defs>
    <style>
      .cls-1 {
        fill: #e24833;
      }

      .cls-2 {
        fill: #fbe9d0;
      }

      .cls-3 {
        fill: #17191f;
      }

      .cls-4 {
        fill: #90aead;
      }

      .cls-5 {
        fill: #f9e7cf;
      }

      .cls-6 {
        fill: #864f41;
      }

      .cls-7 {
        fill: #8fadac;
      }

      .cls-8 {
        fill: #254955;
      }
    </style>
  </defs>
  <!-- Generator: Adobe Illustrator 28.7.1, SVG Export Plug-In . SVG Version: 1.2.0 Build 142)  -->
  <g>
    <g id="Layer_1">
      <g>
        <path class="cls-3" d="M115.62,97.45c-.24-.1-.47-.21-.7-.32-.09-.04-.19-.08-.28-.13-.02,0-.04-.02-.07-.03,0,0-.02,0-.07-.03-.05-.02-.11-.03-.16-.05,1.57.68,3.08,1.47,4.57,2.31-.76-.47-1.53-.93-2.31-1.38-.33-.11-.66-.24-.99-.38Z"/>
        <path class="cls-3" d="M110.77,95.24c-.19-.1-.36-.22-.51-.36.23.28.51.51.82.7-.07-.07-.15-.12-.22-.2-.04-.04-.06-.1-.09-.14Z"/>
        <path class="cls-3" d="M162.03,43.05c-.19-.05-.23-.22-.15-.39s.26-.33.51-.39c.06.06.13.13.19.19.03-.05.06-.09.09-.14-.09-.02-.18-.04-.26-.07-1.19-2.84-3.4-4.32-6.37-4.21-.42.01-.62-.17-.86-.43-.43-.49-1.04-.51-1.47-.2-.48.34-.94.37-1.4.31-.18-.03-.37-.07-.56-.11-.09-.02-.18-.04-.28-.06-.06.44-.03.97-.75.63-.4-.19-.82-.23-1.25-.28-.48-.06-1.39-.13-1.12-.95.23-.71-.22-1.98,1.17-2.01.96-.02,1.82-.31,2.66-.71-.97-.68-2.04-1.12-3.24-1.04-.43.03-.63-.14-.77-.49-.43-1.07-1.33-1.45-2.45-1.07-2.31.79-4.64,1.54-6.84,2.61-.7.34-1.29,0-1.45-.74-.03-.16-.08-.29-.14-.4-.11-.21-.28-.31-.5-.32-.01,0-.03,0-.05,0-.1,0-.21,0-.34.04h0c-.87-.92-1.61-.25-2.32.22-1.19.79-2.36,1.5-3.88,0,.27,1.09.37,1.93-.18,2.43-1.07.98-2.24,1.8-3.86,1.81-1.94.01-3.89.17-5.49,1.51-1.3,1.56-2.17,3.47-3.73,4.83-.78.79-1.69,1.43-2.57,2.11-.88.68-1.72,1.42-2.37,2.41-.58.89-.78,2.83-2.72,2.4-.05,1.01-.68,1.5-1.39,1.91-.24.14-.48.27-.72.4h0c-.03.78-.05,1.56-.07,2.34s-.06,1.56-.12,2.34c-.13,1.59.64,2.1,2.21,1.71.82-.2,1.59-.62,2.47-.48.38-.11.76-.19,1.13-.33.47-.18.85-.83,1.43-.36.46.37.22.93.12,1.38-.5,2.13.74,3.82,2.23,4.54,2.81,1.37,3.33,3.77,3.89,6.3.33,1.49.39,3-.14,4.48-.09.26-.19.7-.05.84.08.09.16.2.23.32.06.09.11.18.15.28.5,1.03.9,2.84,1.19,4.44.09-.47.18-.93.16-1.39-.09-2.3,1.67-3.43,3.05-4.76,1.2-1.15,2.5-2.2,3.81-3.22,2.84-2.2,5.95-1.03,6.89,2.54.72,2.74.29,5.46-1.58,7.8-.51.64-.84,1.43-1.32,2.1-.79,1.11-2.02,1.51-3.25,1.86-.64.18-1.18.63-.96,1.24.21.59.83.14,1.29.05,2.04-.4,3.6-1.71,5.28-2.79.28-.18.85-.73.85-.08,0,1.92,1.65,2.41,2.66,3.44.44.45.85.76.98,1.49.13.71.75,1.34,1.45,1.75,2.39,1.39,4.54,3.09,6.48,5.06.58.59,3.16.46,4.01-.19.62-.47,1.15-1.06,1.77-1.53.43-.33.96-.56,1.49-.16.68.51.01.84-.19,1.21-.77,1.37-.97,2.76-.16,4.18.21.37-.13.41-.27.51-.58.42-1.31.45-1.98.5-2.45.19-4.68,1-6.81,2.17-1.07.59-2.33.7-3.47,1.15-3.62,1.42-6.9,3.51-10.4,5.17-.3.14-.65.17-.98.25-1.1.3-2.16,1.07-3.26,1.07-.16,0-.32-.02-.47-.05-.68-.16-1.01-.1-1.27.33-.68,1.15-1.84,1.53-2.93,2.07-1.62.8-3.3,1.5-4.38,3.11-1.2,1.79-2.47,3.53-3.18,5.59-.37,1.06-.93,1.05-1.78.54-1.88-1.13-4.21-.95-6.11-2.06-.26-.15-.73-.22-1.19.21,1.07.43,2.05.83,3.04,1.21.39.15,1.02.19.9.75-.11.52-.72.33-1.14.4-.38.07-.83-.24-1.19.15.07.08.1.13.14.15,1.35.69,3.49-.18,4.07,2.07.02.09.38.16.55.12,1.81-.38,1.14.75.94,1.55-.09.38-.35.72-.41,1.1-.11.73-.47,1.41-.71,2.12-.12.35-.21.71-.23,1.08,0,.01,0,.02,0,.03-.01.35.04.72.2,1.1.67.07.61-.5.73-.88.66-1.99,1.27-4,1.94-5.99.32-.95.77-1.8,2.11-1.73-1.12-1.14-.58-2.98,1.02-4.25.79,2.77-.19,5.29-1.08,7.81-.77,2.16-1.56,4.32-2.41,6.45-.26.64.1.74.49.93.94-1.25,2.5-1.21,3.78-1.67,2.67-.96,4.89-2.53,6.59-4.7,1.18-1.51,2.84-2.21,4.25-3.3.71-.55,1.41-1.07,2.18-1.38.38-.15.78-.26,1.2-.28.42-.03.87.02,1.35.17,2.83-.68,5.66-1.36,8.49-2.05.23-.06.51-.34.64-.27,1.41.72,1.3,2.24,1.73,3.47.27.79-.18,1.28-1,1.47-1.78.41-3.61.61-5.41.56-2.61-.06-4.94.99-7.38,1.6-.45.11-.84.49-1.26.75-.02.41-.15.91-.53.97-2.05.31-2.53,2.56-4.35,3.37-1.57.7-2.78,2.37-4.04,3.73-2.21,2.39-3.75,5.21-5.45,7.93-1.19,2.11-1.85,4.39-2.18,6.77-.12.85-.65,1.51-1,2.26.69.55.87,1.16.52,2.05-.88,2.22-1.58,4.5-1.83,6.89,17.3,0,34.6-.02,51.91.04,1.14,0,1.25-.33,1.25-1.32-.03-38.73-.02-77.46-.02-116.19-1.12-.19-1.33-1.55-2.44-1.87Z"/>
        <path class="cls-3" d="M109.52,93.15c-.01-.27,0-.53.06-.79-.02,0-.04.02-.07.03-.03.26-.02.51.01.76Z"/>
        <path class="cls-3" d="M121.03,80.84c-.21-.4-.36-.67-.39-.61-.02.04-.05.09-.1.15.18.13.34.29.49.46Z"/>
        <path class="cls-3" d="M120.51,100c-.1,0-.21-.03-.31-.06.16.09.32.18.47.28-.06-.07-.12-.14-.16-.22Z"/>
        <path class="cls-3" d="M121.52,100.64c-.07-.01-.15-.03-.22-.05.11.06.21.13.32.19.01,0,.02-.01.04-.02-.05-.04-.09-.08-.14-.12Z"/>
        <path class="cls-6" d="M112.65,153.45c-1.12.69-2.31,1.24-3.27,2.2-.69.68-3.98.75-4.78.19-.23-.16-.33-.35-.26-.62.2-.74-.07-.81-.62-.44-.25.17-.5.16-.66-.03-.45-.52-.96-.89-1.51-1.19-1.66-.89-3.67-1.05-5.23-2.14-1.01,1.68-2.57,2.62-4.18,3.5-.97.52-1.95,1.02-2.85,1.64-.66.46-1.49-.05-1.5-.96-.01-.93.22-1.73.98-2.56.9-.97,1.79-1.99,2.68-2.98.06-.06.07-.18.09-.27.28-1.71.77-2.1,2.73-2.16.29,0,.59-.01.88-.01.63,0,.79-.5.98-.94.27-.63-.28-.8-.63-.96-1.05-.46-1.34-.64-.33-1.78.83-.94,1.31-1.54,2.55-1.1.19.07.52.02.62-.27.13-.38-.18-.46-.43-.62-2.11-1.31-3.84-.69-5.27,1.56-.45.71-1.46,1.37-2.81,1.07,1.94-1.7,3.81-3.15,5.81-4.43.08-.05.19-.14.26-.12,1.25.27,2.51.48,3.77.21,1.23-.26,2.13-1.41,3.5-1.33.4.5-.66,1.44.2,1.53.58.06,1.16-.13,1.72.32-1.21,1.41-2.96,1.15-4.47,1.55-1.23.32-1.25.28-.52,1.25.23.3,0,.47-.15.6-.33.28-.71.51-1.07.76,2.46,1.14,3.93,3.31,5.42,5.41.21.3.45.54.72.72.27.18.55.31.86.37.15.03.31.04.47.04.48,0,1-.16,1.52-.48-1.11-.22-1.52-.72-1.55-1.42-.02-.42.09-.9.27-1.43.81-2.4,1.47-4.86,2.3-7.25.3-.85.5-1.67.49-2.56-2.54-.55-2.78-1.35-1.13-3.4.6-.74,1.5-1.46,1.01-2.66-1.08.02-2.15.29-3.25.46-1.1.17-2.23.25-3.42-.1.68-.6,1.16-1.04,1.7-1.51-.58-.37-1.01-.21-1.38,0-1.11.61-2.22,1.23-3.3,1.9-1.1.68-2.18,1.35-3.54.68-.77-.38-.98-.07-.87.69.29,1.95-.98,3.37-2.99,3.59-.85.09-2.05-.19-2.36,1.15.05.12.19.32.15.36-1.5,1.62-3.09,3.14-4.93,4.38-.74.5-1.63.19-2.09-.13-1.52-1.06-2.71-.59-3.93.41.06,1.06.04,1.5-.39,1.53-.09,0-.19,0-.31-.03-.24-.05-.55-.15-.96-.3-.09-.03-.2-.09-.28-.07-1.97.54-3.91,1.36-5.43,2.63-.96.8-1.47,1.12-2.59.57-.62-.31-1.38-.85-2.15-.25-1.32,1.02-2.57,2.12-3.45,3.56.98.51,1.65-.1,2.34-.65,1.38-1.1,2.99-1.04,4.27.22.53.52,1.03.39,1.62.24.37-.09.82-.21,1.09.16.26.36-.08.7-.15,1.05-.17.77-.15,1.55-.61,2.28-1.36,2.17-3.73,2.28-5.83,2.89-.8.23-1.27.33-1.63,1.28-.5,1.32-1.9,1.89-3.25,2.21-.64.15-1.08.4-1.37.96h39.26c1.05-1.08,1.33-2.68,2.81-3.55.99-.58,1.77-.62,2.73-.41,1.33.29,2.59,1.17,4.03.37.29-.16.37.17.48.38.53,1.01.95,2.04.87,3.22h1.18c.25-2.39.95-4.67,1.83-6.89.35-.89.18-1.5-.52-2.05Z"/>
        <path class="cls-4" d="M61.35,161.43c1.34-.32,2.75-.89,3.25-2.21.36-.95.84-1.05,1.63-1.28,2.1-.6,4.47-.72,5.83-2.89.46-.73.44-1.51.61-2.28.08-.35.41-.69.15-1.05-.27-.38-.73-.26-1.09-.16-.59.15-1.08.29-1.62-.24-1.29-1.27-2.9-1.32-4.27-.22-.69.55-1.36,1.16-2.34.65.88-1.44,2.13-2.54,3.45-3.56.77-.6,1.53-.05,2.15.25,1.12.56,1.63.23,2.59-.57,1.52-1.27,3.45-2.09,5.43-2.63.08-.02.19.03.28.07.41.15.72.25.96.3.12.02.22.03.31.03.43-.03.45-.47.39-1.53,0,0,0,0,0,0,1.22-.99,2.41-1.47,3.93-.41.46.32,1.35.63,2.09.13,1.84-1.24,3.43-2.77,4.93-4.38.04-.04-.1-.24-.15-.36.31-1.33,1.51-1.05,2.36-1.15,2.01-.22,3.28-1.64,2.99-3.59-.11-.76.1-1.06.87-.69,1.35.66,2.43,0,3.54-.68,1.08-.66,2.18-1.29,3.3-1.9.37-.2.8-.36,1.38,0-.54.48-1.02.91-1.7,1.51,1.19.35,2.32.27,3.42.1,1.1-.17,2.17-.44,3.25-.46.36-.84.83-1.12,1.35-1.12.51,0,1.08.28,1.64.56,0,0,0,0,0,0,0,0,0,0,0,0-.16-.38-.22-.75-.2-1.1,0-.01,0-.02,0-.03.02-.37.11-.73.23-1.08.24-.71.6-1.39.71-2.12.06-.38.32-.72.41-1.1.2-.81.88-1.94-.94-1.55-.18.04-.53-.04-.55-.12-.58-2.25-2.72-1.38-4.07-2.07-.04-.02-.07-.07-.14-.15.36-.39.81-.08,1.19-.15.41-.08,1.03.11,1.14-.4.12-.56-.5-.59-.9-.75-.99-.39-1.98-.79-3.04-1.21.45-.43.93-.36,1.19-.21,1.9,1.11,4.23.93,6.11,2.06.85.51,1.41.52,1.78-.54.71-2.06,1.98-3.8,3.18-5.59,1.08-1.61,2.76-2.31,4.38-3.11,1.09-.54,2.25-.92,2.93-2.07.26-.43.59-.49,1.27-.33.16.04.32.05.47.05,1.1,0,2.16-.76,3.26-1.07-.03,0-.07-.01-.1-.02-.24-.05-.5-.05-.75-.07-.23-.02-.45-.04-.65-.13-.27-.12-.49-.36-.6-.82-.06-.23-.69-.48-1.02-.43-1.51.22-1.96-.81-2.54-1.86-.96-1.74-2.03-3.43-3.37-4.92-.11-.06-.21-.13-.32-.19-.24-.07-.46-.19-.62-.37-.16-.09-.32-.18-.47-.28-.11-.03-.22-.07-.31-.13-.32-.2-.65-.4-.97-.6-1.49-.84-3.01-1.63-4.57-2.31-.34-.12-.68-.22-1.04-.3-.8-.18-1.61-.46-2.22-1.02-.32-.19-.59-.43-.82-.7-.46-.45-.71-1.07-.74-1.72-.03-.25-.04-.51-.01-.76.02-.12.04-.24.09-.33.04-.08.11-.13.21-.17.02-.03.04-.05.06-.07.01-.12.02-.24.01-.35,0-.2-.04-.4-.08-.6-.02-.09-.03-.19-.05-.28-.07-.36-.14-.72-.12-1.08,0-.31.08-.61.24-.87-.64-.68-1.37-1.15-2.33-1.34.96.19,1.69.65,2.33,1.34.01-.02.02-.03.03-.05.25-1.03-.15-4.31-.62-4.96-1.02-1.43-.76-3.16.64-4.36,1.47-1.27,2.6-2.77,3.09-4.68.11-.43.29-1.04-.52-.69-1.56.67-1.72-.44-1.99-1.46-1.01-.25-2.02-.18-3.04-.07-.28.21-.56.41-.85.57.29-.17.57-.36.85-.57-1.18-.34-2.38-.47-3.58-.55-1.21-.08-2.42-.12-3.62-.27-1.15-.14-2.55.36-3.39-.55-.9-.98.27-2.2.19-3.29-.06-.85.38-.62.73-.64,1.08-.04,2.15-.03,3.23-.04-.07-.73.1-1.45.24-2.19-.14.75-.31,1.47-.24,2.19.94.2,1.89.26,2.84.27.95,0,1.9-.05,2.85-.08.63-.02,1.26-.03,1.9,0,.06-.53.13-1.06.45-1.52,1.45-2.09,2.26-4.42,2.62-6.91-.88-.14-1.66.28-2.47.48-1.57.39-2.34-.12-2.21-1.71.06-.78.1-1.56.12-2.34s.04-1.56.07-2.34h0c.24-.14.48-.27.72-.4.71-.41,1.34-.9,1.39-1.91,1.94.43,2.14-1.51,2.72-2.4.65-.99,1.5-1.73,2.37-2.41.88-.68,1.79-1.32,2.57-2.11,1.56-1.36,2.43-3.27,3.73-4.83,1.6-1.34,3.55-1.5,5.49-1.51,1.61,0,2.78-.83,3.86-1.81.54-.5.45-1.34.18-2.43,1.52,1.5,2.69.79,3.88,0,.71-.47,1.46-1.14,2.32-.22.13-.03.23-.04.34-.04.01,0,.03,0,.05,0,.22.01.39.11.5.32.06.1.1.24.14.4.16.75.75,1.09,1.45.74,2.21-1.07,4.53-1.82,6.84-2.61,1.11-.38,2.02,0,2.45,1.07.14.35.33.52.77.49,1.2-.08,2.27.36,3.24,1.04-.84.4-1.7.69-2.66.71-1.39.03-.94,1.29-1.17,2.01-.27.82.64.88,1.12.95.44.06.85.09,1.25.28.71.34.69-.19.75-.63h0c.09.02.18.04.28.06.19.04.37.08.56.11.46.06.92.04,1.4-.31.43-.31,1.04-.29,1.47.2.23.26.44.44.86.43,2.98-.1,5.19,1.38,6.37,4.21.09.02.18.04.26.07-.03.05-.06.09-.09.14-.06-.06-.13-.13-.19-.19-.25.05-.44.22-.51.39s-.04.33.15.39c1.1.32,1.32,1.68,2.44,1.87v-17.41c-.79-.27-2.08.34-2.15-1.27.7-.12,1.48-.09,2.15-.5,0-7.67-.02-15.35.03-23.02,0-1.01-.2-1.21-1.21-1.21-50.48.03-100.95.03-151.43,0-1.01,0-1.21.2-1.21,1.21.03,52.83.03,105.67,0,158.5,0,1.01.2,1.4,1.21,1.18.02-1.12.04-2.24.06-3.36-.14-.86-.08-1.72-.05-2.59,0-.22.01-.43,0-.65,0-.65-.06-1.29-.26-1.93-.11-.89-.08-1.77,0-2.66-.08.88-.11,1.76,0,2.66,1.91.12,3.82.37,5.71-.22.4-.13.78-.09,1.11.17.6.48,1.17.29,1.77,0,1.2-.59,2.55-.93,3.82-.72,1.6.26,2.99-.05,4.38-.7-.8-.1-1.62-.16-2.59-.6,2.41-.78,3.4-3.79,6.47-2.92-.89-1.7-.89-1.71-1.3-1.84-.58-.17-1.65-.08-1.52-.76.15-.79,1.06-.07,1.64-.14.54-.06,2.05-1.3,1.87-1.59-.37-.61-1.19-.92-1.65-.65-1.33.79-2.83.99-4.23,1.53-.27.1-.53.27-.38.66.15.38,1.01.39.64.96-.32.49-.86-.17-1.36.03-1.02.41-.67-.23-.61-.8.14-1.29,1.44-1.3,2.14-1.97-1.29-.91-1.28-.78-2.43-.36-1.62.6-3.13,1.58-4.96,1.54-.42,0-1.18-.06-.67.78.38.63-.15.63-.48.74-1.24.42-2.59.58-3.59,1.58-.14.14-.58.21-.66.12-.91-1.03-1.88-.39-2.83-.15,0-1.01,0-2.03,0-3.04h0c1.64.46,3.76-.23,5.14-1.54.46-.44.84-.95,1.08-1.5.32-.72.66-1.25,1.4-1.54.31-.12.53-.43.82-.62.54-.37.89-.87.63-1.5-.26-.64-.92-.38-1.43-.43-.57-.05-1.05.58-1.75.16.38-.77.97-1.23,1.8-1.26,1.51-.07,3.09.2,4.51-.17,1.21-.32,2.89.14,3.59-1.49.13-.3.46-.5.72-.39,1.22.49,2.53-.32,3.73.31.24.13.63.26.83.16,1.89-.93,3.9-.17,5.83-.45.43-.06,1.18-.32,1.25.28.05.45-.26,1.11-.86,1.41-.82.4-1.64.83-2.66,1.36,1.14.6,1.86,1.14,3.15.43,1.34-.74,3.04-.86,4.59-.81.7.02,1.29-.1,1.94-.31-.27,1.53-1.03,1.92-2.44,1.91-1.04,0-2.08.46-3.12.74-1.6.42-3.27.67-4.92,1.68,1.12.65,2.06,1.29,3.22.42.86-.65,1.83-.55,2.82-.63.1,1.28-.75,1.81-1.6,2.13-1.16.43-2.07.63-1.39,2.32.17.43,0,1.12.63,1.48,2.24-1.03,4.53-1.97,6.74-3.07,2.1-1.04,3.93-2.68,6.45-3.12,2.2-.38,4.27-1.6,5.82-3.37,1.27-1.45,2.82-1.79,4.63-1.36,1.22.29,2.46.54,3.69.8.55-.07,1.1-.13,1.65-.19-.55.06-1.1.12-1.65.19-.43.12-.85.25-1.26.38-1.25.41-2.47.88-3.69,1.48-1.17.58-2.14,1.6-3.56,1.88-1.38.27-2.63,1.19-3.95,1.78-.58.26-1.43.39-1.3,1.13.08.46.46.62.9.69.26.05.54.06.78.11.19.03.37.04.54.02s.35-.05.52-.11c.17-.05.34-.12.51-.19.34-.14.68-.3,1.04-.43.54-.18,1.1-.28,1.75-.08-1.06,1.03-2.03,1.87-3.19,2.64-2.71,1.79-5.56,3.45-7.56,6.15-.27.36-.5,1.57-1.48.48-.15-.17-1.19.35-1.42.96-.14.36-.07.78-.59.78-.9,0-1.72.38-2.58.48-.29.03-.32-.63-.14-.7.73-.32,1.38-.55.77-1.56-.06-.09.64-.64.99-.97.17-.17.38-.32.35-.7-1.67.06-2.78,2.2-4.67,1.33-1.01.18-1.55,1.13-2.46,1.48-.72.28-1.01.09-.98-.68.04-.96-1.09-1.72-1.76-1.09-1.1,1.02-2.64.98-3.8,1.8-.46.33-1.36.08-1.3,1.06,0,.06-.13.2-.18.19-1.38-.31-2.46.55-3.66.83-1.12.26.33-.83-.23-1.36-.38-.17-.81.08-1.15.43-.39.4-.9.56-1.34.42-1.48-.48-2.38.28-3.34,1.24-.91.91-2.19,1.25-3.46,1.4-.29.04-1.05.45-.82-.61.09-.4-.55-.11-.77.04-.7.5-1.47.76-2.32.79-.02,1.12-.04,2.24-.06,3.36h48.11c.29-.55.73-.8,1.37-.96ZM151.48,37.54s-.06-.04-.08-.06c.03.02.06.04.09.05,0,0,0,0,0,0ZM53.67,76.83c.02-.19.04-.38.06-.56,1.3-.12,2.61-.23,3.91-.35.95-.4,1.93-.65,2.97-.6.8.04,1.55-.02,2.16-.65.28-.29.8-.53,1.07-.32,1.8,1.45,3.05-.66,4.66-.7-.26-.18-.51-.36-.85-.6.73-.59,1.52-.92,2.33-1.12,1.35-.33,2.77-.3,4.13-.47.17-.13.34-.23.51-.32.51-.25,1.04-.33,1.58-.31.71.02,1.43.2,2.13.32,1.14.2,2.23.73,3.34,1.12.15.04.29.08.44.12.27.7,1.3.44,1.56,1.16-.31.55-1.12-.02-1.35.64.15.32.44.52.71.47,1.9-.36,3.69.05,5.45.72.29.11.5.16.71-.21.82-1.37,1.19-1.36,2.24-.02.88,1.11,1.93,1.37,3.08.58,1.03-.71,2.05-.79,3.21-.49.63.16,1.29.5,1.95-.04.3-.24.72-.12.85.26.14.42-.28.41-.54.5-1.12.38-2.15.88-3.02,1.74-1.17,1.15-1.6,3.44-4.03,2.79-.74,1.96-1.42.54-2.14-.02-.08-.06-.26.02-.42.03.46.85.57,1.07.22,1.43-.12.12-.28.26-.51.44-.36.25-.73.37-1.11.43-1.14.16-2.35-.33-3.46.06-.85.26-1.7.55-2.54.59-.21,0-.42,0-.62-.03-.62-.08-1.22-.36-1.8-.94-.07,0-.12-.03-.16-.08-.53-.14-.6-.74-.9-1.11-.1-.12-.23-.22-.41-.26-.14,0-.27,0-.41,0-.13.11-.26.19-.4.2-.07,0-.13,0-.2-.04s-.13-.09-.2-.17c-.07,0-.13-.03-.17-.08-1.04.05-2.08.07-3.11.05-4.12-.07-8.14-.68-12.1-1.61-2.97-.69-5.91-1.57-8.83-2.53ZM88.07,72.55c-.99.05-1.99.14-2.99.16,1-.02,1.99-.11,2.99-.16ZM100.44,85.01c.09-.05.2-.11.31-.16-.11.05-.21.1-.31.16ZM74.91,136.07c-.52.2-1.06.36-1.59.49.54-.14,1.07-.3,1.59-.49ZM72.53,143.72c.31.05.62.07.93.07-.31,0-.62-.03-.93-.07ZM106.99,73.4c.66-.03,1.19.39,1.72.7.32.19.16.53-.05.76-.87.98-1.5,1.96-.27,3.14.2.19.29.66-.06.75-1.56.42-1.41,1.79-1.74,2.91-.15.52-.37,1.02-.51,1.54-.18.63-.58.74-.9.24-.47-.72-1.06-.64-1.66-.41-.86.32-1.75.16-2.62.34.66.6.65.92.41,1.15-.07.07-.16.12-.26.18.1-.05.19-.11.26-.18.24-.23.25-.55-.41-1.15-.68.09-1.3-.06-1.9-.28-.4-.15-.79-.34-1.19-.5-.59-.25-1.2-.46-1.85-.46,1.58-1.06,3.34-1.74,5.19-2.04,1.5-.24,2.19-1.47,3.06-2.34.57-.57-.61-1.37-.88-2.13-.15-.43-1.21-.62-.51-1.23.57-.5,1.37-.83,2.01.12.32.47.9.74,1.42.6.63-.17.17-.73.17-1.13,0-.36.27-.56.55-.58ZM161.53,31.05c-.09.08-.25.25-.26.24-.07-.05-.1-.09-.11-.13-.03-.11.15-.19.21-.29h0c.33-.28.7-.39,1.13-.36.14,0,.29.03.44.07-.23.91-.94.35-1.4.47ZM23.24,124.27c-1.57.08-3.12.19-4.6.81-1.03.43-2.12.71-3.27.39-1.44-.4-2.36.73-3.48,1.25,0,2.09,0,4.18,0,6.27,0-2.09,0-4.18,0-6.27-.03-.97-.06-1.95-.09-2.92,2.75-.33,5.52-.25,8.22-1.32,1.6-.63,3.54-.3,5.33-.69.7-.15,1.42,1.22,2.53,1.31-1.51.64-3.03,1.09-4.63,1.17ZM55.87,126.12c-.89,0-1.76.13-2.56.56-.27.14-.51.36-.41.7.07.25.31.36.58.36.72.01,1.1.44,1.44,1.04.65,1.12,1.74.84,2.86.57-.93,1.38-2.83,1.46-3.83.31-1.08-1.25-2.88-1.52-4.34-.92-1.5.61-3.04,1.17-4.74.33-.64-.32-1.69-.37-2.3-.05-1.27.67-2.4.67-3.77.37-.87-.2-1.76-.22-2.66-.55-1.14-.42-2.48-.34-3.58.27-.91.5-1.45.03-1.86-.53-.51-.69.02-1.27.52-1.78,1.05-1.06,2.37-.71,3.77-.69-1-1.22-.47-1.51.72-1.48,1.47.03,2.94-.03,4.42-.01.51,0,1.22-.15,1.4.49.17.64-.72.48-1,.95,2.66.24,5.06-.43,7.32-1.63.96-.51,1.87-.71,2.95-.53,1.23.21,2.41.35,3.67-.36,1.06-.6,2.46-.52,3.3.69.64.92,1.72,1.04,2.52,1.91-1.47,0-2.95,0-4.42,0ZM72.51,136.76c-.54.11-1.09.21-1.64.29.55-.08,1.1-.17,1.64-.29ZM50.75,156.38c-.09-.25.22-.14.35-.21.04.05.09.1.13.15-.15.13-.42.22-.48.06ZM60.46,154.78c-.04.1-.08.19-.12.29-.07-.07-.13-.13-.2-.2.11-.03.21-.06.32-.09Z"/>
        <path class="cls-3" d="M108.8,158.79c-1.44.81-2.7-.08-4.03-.37-.96-.21-1.74-.17-2.73.41-1.48.88-1.76,2.47-2.81,3.55h10.92c.08-1.17-.34-2.21-.87-3.22-.11-.21-.19-.55-.48-.38Z"/>
        <path class="cls-8" d="M164.47,27.51v-1.77c-.66.41-1.44.38-2.15.5.07,1.6,1.35,1,2.15,1.27Z"/>
        <path class="cls-3" d="M58.06,77.24c.64.06,1.55.81,1.92-.44,0,0,0,0,0,0h0s0,0,0,0c0,0,0,0,0,0-.08-.02-.16-.03-.24-.05.02-.04.05-.08.07-.12.06.06.11.11.17.17h.01s0,0,0,0c.06,0,.13.01.19.01.21,0,.43,0,.5.1,1.45,2.12,3.75,1.61,5.75,1.77,1.66.14,3.19.74,4.79,1.04.66.12,1.31.36,1.99.32,1.59-.11,3,.58,4.5.87h0c.05.05.1.08.17.08.26,0,.53,0,.79,0,.14,0,.27,0,.41,0,1.11-.19,1.08.72,1.31,1.37.05.05.1.08.16.08,1.65.13,3.3.25,4.95.38,1.12-.39,2.32.1,3.46-.06.38-.05.75-.17,1.11-.43.22-.18.39-.32.51-.44.35-.36.24-.58-.22-1.43.15-.01.34-.09.42-.03.72.56,1.4,1.98,2.14.02,2.43.65,2.85-1.64,4.03-2.79.87-.86,1.9-1.36,3.02-1.74.26-.09.68-.08.54-.5-.13-.39-.55-.5-.85-.26-.67.54-1.32.21-1.95.04-1.16-.3-2.18-.22-3.21.49-1.15.79-2.2.53-3.08-.58-1.05-1.33-1.43-1.34-2.24.02-.22.36-.43.32-.71.21-1.76-.67-3.55-1.08-5.45-.72-.26.05-.56-.15-.71-.47.23-.66,1.04-.09,1.35-.64-.26-.72-1.28-.45-1.56-1.16-.15-.04-.29-.08-.44-.12-.38,0-.82.12-1.13-.02-2.07-.92-4.25-.77-6.42-.79h0c-1.37.18-2.79.14-4.13.47-.81.2-1.59.53-2.33,1.12.34.24.59.42.85.6-1.61.04-2.86,2.15-4.66.7-.26-.21-.79.03-1.07.32-.61.63-1.36.69-2.16.65-1.04-.05-2.02.19-2.97.6-.14.54-.47,1.23.43,1.32Z"/>
        <path class="cls-2" d="M108.62,67.21c.62.26,1.36.25,1.93.62.19.12.36.29.5.52-.18.24-.41.17-.64.11-.27-.07-.56-.28-.77.06-.06.1-.03.31.03.41.21.31.48.19.78.1,1.28-.39,1.61.8,2.24,1.43.31.32.52.79.1,1.17-.63.58-1.29,1.19-2.28.79.26,1.03.43,2.13,1.99,1.46.81-.35.63.26.52.69-.49,1.91-1.62,3.41-3.09,4.68-1.4,1.21-1.67,2.94-.64,4.36.47.65.87,3.93.62,4.96-.01.02-.02.03-.03.05,0,0,0,0,0,0-.16.25-.24.56-.24.87-.02.36.05.72.12,1.08.02.09.04.19.05.28.04.2.07.4.08.6,0,.12,0,.24-.01.35h0s-.05.05-.06.07c-.1.14-.19.29-.23.47,0,0,0,0,0,0-.06.26-.07.53-.06.79,0,0,0,0,0,0,.04.65.29,1.27.74,1.72.15.14.32.26.51.36.03.05.06.1.09.14.07.08.15.13.22.2.61.56,1.42.84,2.22,1.02.35.08.7.18,1.04.3.05.02.11.03.16.05.05.02.07.03.07.03.02,0,.04.02.07.03.09.04.19.08.28.13.23.11.47.21.7.32.33.14.66.27.99.38.78.45,1.54.91,2.31,1.38.32.2.65.4.97.6.1.06.2.1.31.13.1.03.2.05.31.06.05.08.1.15.16.22.17.17.38.3.62.37.07.02.15.04.22.05.04.04.09.08.14.12-.01,0-.02.01-.04.02,1.34,1.49,2.4,3.18,3.37,4.92.58,1.04,1.03,2.08,2.54,1.86.33-.05.96.21,1.02.43.12.46.34.69.6.82.2.09.42.12.65.13.25.02.51.02.75.07.03,0,.07,0,.1.02.33-.08.68-.11.98-.25,3.5-1.65,6.77-3.75,10.4-5.17,1.15-.45,2.4-.56,3.47-1.15,2.13-1.18,4.36-1.99,6.81-2.17.66-.05,1.39-.08,1.98-.5.14-.1.49-.13.27-.51-.81-1.42-.61-2.81.16-4.18.21-.37.87-.7.19-1.21-.53-.4-1.06-.17-1.49.16-.62.47-1.15,1.06-1.77,1.53-.85.65-3.43.78-4.01.19-1.94-1.98-4.08-3.67-6.48-5.06-.7-.41-1.33-1.04-1.45-1.75-.13-.74-.54-1.04-.98-1.49-1.01-1.03-2.67-1.52-2.66-3.44,0-.65-.57-.09-.85.08-1.68,1.07-3.24,2.38-5.28,2.79-.45.09-1.07.54-1.29-.05-.22-.61.31-1.06.96-1.24,1.24-.35,2.46-.76,3.25-1.86.48-.67.8-1.46,1.32-2.1,1.87-2.34,2.3-5.06,1.58-7.8-.94-3.56-4.05-4.74-6.89-2.54-1.31,1.02-2.62,2.07-3.81,3.22-1.38,1.33-3.13,2.46-3.05,4.76.02.46-.07.93-.16,1.39-.3-1.6-.69-3.41-1.19-4.44-.05-.1-.1-.19-.15-.28-.08-.13-.15-.24-.23-.32-.13-.14-.04-.58.05-.84.53-1.48.47-2.99.14-4.48-.56-2.53-1.08-4.94-3.89-6.3-1.48-.72-2.72-2.41-2.23-4.54.11-.46.35-1.01-.12-1.38-.58-.47-.96.17-1.43.36-.36.14-.75.22-1.13.33-.36,2.5-1.17,4.83-2.62,6.91-.32.47-.39.99-.45,1.52ZM121.03,80.84c-.15-.18-.31-.33-.49-.46.05-.06.08-.11.1-.15.03-.06.18.21.39.61Z"/>
        <path class="cls-3" d="M11.92,159.03c.85-.03,1.62-.29,2.32-.79.22-.15.85-.45.77-.04-.23,1.06.53.65.82.61,1.27-.16,2.55-.49,3.46-1.4.96-.96,1.86-1.72,3.34-1.24.44.14.95-.03,1.34-.42.34-.35.77-.6,1.15-.43.56.53-.89,1.61.23,1.36,1.2-.27,2.28-1.14,3.66-.83.05.01.18-.13.18-.19-.06-.98.83-.74,1.3-1.06,1.17-.82,2.7-.77,3.8-1.8.67-.62,1.8.14,1.76,1.09-.03.77.27.96.98.68.91-.36,1.45-1.3,2.46-1.48,2.3-1.18,4.73-2.17,6.87-3.59,2.14-1.41,4.81-1.78,6.67-3.64.46-.46,1.31-.15,1.61-.88-.24-.04-.52-.06-.78-.11-.43-.08-.82-.23-.9-.69-.13-.73.73-.87,1.3-1.13,1.33-.59,2.57-1.51,3.95-1.78,1.43-.28,2.39-1.31,3.56-1.88,1.22-.6,2.44-1.07,3.69-1.48.42-.14.84-.26,1.26-.38-1.23-.27-2.46-.51-3.69-.8-1.81-.43-3.36-.1-4.63,1.36-1.55,1.77-3.62,2.99-5.82,3.37-2.52.44-4.35,2.08-6.45,3.12-2.22,1.1-4.5,2.04-6.74,3.07-1.33,1.51-3.29,1.82-5.01,2.57-.76.33-1.56.55-2.16,1.16-.25.25-.57.49-.91.39-1.1-.33-1.97.32-2.93.61-1.39.64-2.78.96-4.38.7-1.27-.21-2.61.13-3.82.72-.6.3-1.18.48-1.77,0-.33-.27-.71-.3-1.11-.17-1.88.59-3.8.34-5.71.22.2.64.26,1.28.26,1.93,0,.22,0,.43,0,.65-.03.87-.09,1.73.05,2.59Z"/>
        <path class="cls-1" d="M115.83,143.69c.57-1.48,1.44-2.84,1.66-4.47.12-.88,1.59-1.34,1.3-2.12-.22-.59-1.53-.68-2.14-1.24-1-.91-1.41-.37-1.86.48-.44.84-.61,1.84-1.53,2.71.15-1.25,1.18-2.11.56-3.34-.92.73-1.87.98-2.77-.03-.29-.32-.44-.76-.18-1.07.19-.22.4-.35.63-.42.38-.11.81-.02,1.23.18-.17-.9-.34-1.79-.52-2.69-.56-.28-1.13-.55-1.64-.56-.52,0-.98.27-1.35,1.12.49,1.2-.42,1.91-1.01,2.66-1.65,2.06-1.41,2.85,1.13,3.4,2.79-.41.44,1.77,1.25,2.4.51-.02.52-.61.9-.88.08.07.22.14.25.24.18.53.47.93.98,1.21.46.25,1.28.08,1.37.65.14.95.6,1.84.41,2.87-.72,3.77-2.79,5.71-6.67,6.17-.52.32-1.04.47-1.52.48-.16,0-.32-.01-.47-.04-.31-.06-.6-.18-.86-.37-.27-.18-.51-.43-.72-.72-1.49-2.1-2.96-4.27-5.42-5.41-1.39,1.96-3.07,3.81-2.54,6.51,1.56,1.09,3.57,1.26,5.23,2.14.55.3,1.07.67,1.51,1.19.16.19.42.19.66.03.56-.38.83-.3.62.44-.07.27.03.46.26.62.8.56,4.09.49,4.78-.19.96-.95,2.15-1.5,3.27-2.2.35-.75.89-1.41,1-2.26.32-2.39.98-4.66,2.18-6.77,0-.24-.08-.52,0-.73Z"/>
        <polygon class="cls-1" points="112.23 131.68 112.23 131.69 112.23 131.69 112.23 131.68"/>
        <path class="cls-3" d="M112.79,71.64c.42-.39.21-.86-.1-1.17-.64-.64-.96-1.82-2.24-1.43-.3.09-.57.21-.78-.1-.07-.1-.09-.32-.03-.41.21-.35.5-.13.77-.06.23.06.46.14.64-.11-.14-.23-.31-.4-.5-.52-.57-.37-1.31-.36-1.93-.62-.63-.03-1.26-.02-1.9,0-.95.03-1.9.08-2.85.08-.95,0-1.89-.07-2.84-.27-1.08,0-2.15,0-3.23.04-.36.01-.8-.21-.73.64.08,1.09-1.09,2.3-.19,3.29.84.91,2.24.41,3.39.55,1.2.15,2.41.18,3.62.27,1.21.08,2.41.22,3.58.55h0c1.02-.1,2.03-.17,3.04.07.99.4,1.64-.21,2.28-.79Z"/>
        <path class="cls-3" d="M106.43,73.98c0,.4.46.96-.17,1.13-.52.14-1.1-.13-1.42-.6-.64-.95-1.43-.62-2.01-.12-.7.61.35.8.51,1.23.27.75,1.46,1.55.88,2.13-.87.88-1.56,2.1-3.06,2.34-1.85.3-3.61.97-5.19,2.04.66,0,1.26.21,1.85.46.4.17.79.35,1.19.5.6.23,1.22.38,1.9.28.86-.18,1.76-.01,2.62-.34.6-.22,1.19-.31,1.66.41.33.5.73.39.9-.24.15-.52.36-1.02.51-1.54.33-1.12.18-2.49,1.74-2.91.35-.09.26-.56.06-.75-1.24-1.17-.6-2.15.27-3.14.21-.23.37-.57.05-.76-.53-.31-1.06-.73-1.72-.7-.29.01-.56.21-.55.58Z"/>
        <path class="cls-6" d="M53.04,145.87c-1.86,1.86-4.53,2.23-6.67,3.64-2.15,1.41-4.57,2.41-6.87,3.59,1.9.87,3-1.27,4.67-1.33.03.39-.17.54-.35.7-.35.33-1.05.88-.99.97.6,1.01-.04,1.24-.77,1.56-.18.08-.15.74.14.7.86-.1,1.68-.48,2.58-.48.52,0,.46-.42.59-.78.23-.61,1.27-1.12,1.42-.96.98,1.08,1.21-.12,1.48-.48,2-2.7,4.86-4.36,7.56-6.15,1.15-.76,2.13-1.6,3.19-2.64-.65-.2-1.22-.11-1.75.08-.36.12-.7.29-1.04.43-.17.07-.34.13-.51.19s-.35.09-.52.11c-.18.02-.36.01-.54-.02-.3.73-1.15.42-1.61.88Z"/>
        <path class="cls-8" d="M74.6,80.96c1.03.02,2.07,0,3.11-.05-1.5-.29-2.92-.98-4.5-.87-.68.05-1.33-.19-1.99-.32-1.61-.3-3.13-.9-4.79-1.04-2-.17-4.3.35-5.75-1.77-.07-.1-.29-.1-.5-.1-.07,0-.14,0-.19-.01-.37,1.25-1.28.5-1.92.44-.9-.09-.57-.78-.43-1.32-1.3.12-2.61.23-3.91.35-.02.19-.04.38-.06.56,2.92.96,5.86,1.83,8.83,2.53,3.96.92,7.98,1.53,12.1,1.61Z"/>
        <polygon class="cls-8" points="59.98 76.79 59.98 76.8 59.98 76.8 59.98 76.8 59.98 76.79"/>
        <path class="cls-8" d="M80.52,72.25c.32.14.75.02,1.13.02-1.11-.38-2.19-.91-3.34-1.12-.7-.12-1.42-.3-2.13-.32-.53-.01-1.06.06-1.58.31-.17.08-.34.19-.51.32,2.17.01,4.35-.14,6.42.79Z"/>
        <path class="cls-8" d="M80.55,82.45c.58.59,1.18.86,1.8.94.21.03.41.04.62.03.83-.04,1.69-.33,2.54-.59-1.65-.13-3.3-.25-4.95-.38Z"/>
        <path class="cls-8" d="M79.07,81c.18.05.31.14.41.26.3.37.36.96.9,1.11-.23-.65-.2-1.56-1.31-1.37Z"/>
        <path class="cls-6" d="M109.58,92.36s0,0,0,0c.04-.18.13-.33.23-.47-.1.04-.17.1-.21.17-.05.1-.07.21-.09.33.03,0,.05-.02.07-.03Z"/>
        <path class="cls-8" d="M77.88,81c.07.08.13.13.2.17s.13.05.2.04c.13-.01.26-.09.4-.2-.26,0-.53,0-.79,0Z"/>
        <path class="cls-8" d="M60.46,154.78c-.11.03-.21.06-.32.09.06.07.13.14.2.2.04-.1.08-.19.12-.29Z"/>
        <path class="cls-6" d="M112.74,134.37h0c-.42-.2-.84-.29-1.23-.18-.23.06-.44.2-.63.42-.26.31-.11.75.18,1.07.89,1.01,1.85.76,2.77.03.61,1.22-.42,2.09-.56,3.34.92-.88,1.09-1.87,1.53-2.71.45-.85.86-1.39,1.86-.48.61.55,1.92.65,2.14,1.24.29.78-1.18,1.24-1.3,2.12-.22,1.63-1.08,2.99-1.66,4.47-.08.21,0,.48,0,.73,1.7-2.72,3.23-5.55,5.45-7.93,1.26-1.36,2.47-3.04,4.04-3.73,1.82-.81,2.3-3.05,4.35-3.37.38-.06.51-.56.53-.97-.7.2-1.4.42-2.1.58-.33.07-.76.51-1.02,0-.22-.43.26-.67.5-.95,1.86-2.26,3.83-4.38,6.82-5.15-.48-.15-.93-.2-1.35-.17-.42.03-.82.13-1.2.28-.76.31-1.46.83-2.18,1.38-1.42,1.09-3.07,1.79-4.25,3.3-1.7,2.16-3.91,3.74-6.59,4.7-1.28.46-2.84.41-3.78,1.67-.66.83-1.43.87-2.29.34Z"/>
        <path class="cls-1" d="M127.56,128.03c-.24.29-.72.53-.5.95.26.51.69.07,1.02,0,.71-.16,1.4-.38,2.1-.58.42-.26.81-.63,1.26-.75,2.44-.61,4.76-1.66,7.38-1.6,1.81.04,3.63-.15,5.41-.56.82-.19,1.27-.68,1-1.47-.42-1.23-.32-2.75-1.73-3.47-.13-.07-.41.22-.64.27-2.83.69-5.66,1.37-8.49,2.05h0c-2.99.77-4.96,2.89-6.82,5.15Z"/>
        <path class="cls-7" d="M112.23,131.69c.17.9.34,1.79.52,2.69.86.53,1.64.49,2.29-.34-.39-.19-.74-.3-.49-.93.85-2.13,1.64-4.29,2.41-6.45.9-2.52,1.87-5.05,1.08-7.81-1.6,1.27-2.14,3.11-1.02,4.25-1.34-.07-1.8.78-2.11,1.73-.66,1.99-1.28,4-1.94,5.99-.12.37-.06.95-.73.88,0,0,0,0,0,0,0,0,0,0,0,0Z"/>
        <path class="cls-7" d="M31.33,151.79c.34.1.66-.14.91-.39.6-.61,1.41-.83,2.16-1.16,1.72-.75,3.68-1.06,5.01-2.57-.63-.36-.46-1.04-.63-1.48-.68-1.69.23-1.89,1.39-2.32.85-.32,1.69-.85,1.6-2.13-.98.08-1.96-.02-2.82.63-1.16.87-2.1.23-3.22-.42,1.65-1.01,3.31-1.26,4.92-1.68,1.04-.27,2.08-.74,3.12-.74,1.4,0,2.16-.39,2.44-1.91-.65.21-1.24.33-1.94.31-1.55-.05-3.25.06-4.59.81-1.29.71-2.01.17-3.15-.43,1.03-.53,1.84-.95,2.66-1.36.6-.29.91-.95.86-1.41-.07-.6-.83-.34-1.25-.28-1.93.28-3.94-.48-5.83.45-.2.1-.59-.03-.83-.16-1.2-.63-2.52.19-3.73-.31-.26-.11-.6.09-.72.39-.71,1.63-2.38,1.18-3.59,1.49-1.42.37-3,.11-4.51.17-.83.04-1.42.5-1.8,1.26.69.43,1.18-.21,1.75-.16.51.05,1.17-.21,1.43.43.25.63-.09,1.13-.63,1.5-.28.19-.51.5-.82.62-.74.29-1.08.81-1.4,1.54-.25.56-.62,1.07-1.08,1.5-1.38,1.32-3.5,2-5.14,1.54,0,1.02,0,2.03,0,3.04.96-.24,1.92-.88,2.83.15.08.09.53.01.66-.12,1-1,2.35-1.16,3.59-1.58.33-.11.86-.11.48-.74-.51-.85.25-.79.67-.78,1.83.04,3.34-.94,4.96-1.54,1.15-.42,1.14-.55,2.43.36-.7.68-2.01.68-2.14,1.97-.06.57-.41,1.22.61.8.5-.2,1.04.46,1.36-.03.37-.57-.49-.58-.64-.96-.15-.39.11-.56.38-.66,1.39-.54,2.89-.74,4.23-1.53.46-.27,1.28.04,1.65.65.18.29-1.33,1.53-1.87,1.59-.57.06-1.49-.65-1.64.14-.13.69.94.59,1.52.76.41.12.41.14,1.3,1.84-3.07-.86-4.07,2.14-6.47,2.92.98.44,1.79.5,2.59.6.96-.29,1.83-.94,2.93-.61Z"/>
        <path class="cls-7" d="M20.01,122.48c-2.7,1.07-5.47.99-8.22,1.32.03.97.06,1.95.09,2.92,1.12-.52,2.04-1.65,3.48-1.25,1.15.32,2.23.03,3.27-.39,1.49-.61,3.03-.73,4.6-.81,1.6-.08,3.12-.53,4.63-1.17-1.11-.08-1.83-1.46-2.53-1.31-1.79.39-3.74.06-5.33.69Z"/>
        <path class="cls-7" d="M98.85,144.91c.36-.25.74-.48,1.07-.76.15-.13.38-.29.15-.6-.73-.96-.71-.93.52-1.25,1.51-.4,3.26-.14,4.47-1.55-.55-.45-1.13-.26-1.72-.32-.86-.09.2-1.03-.2-1.53-1.37-.08-2.27,1.07-3.5,1.33-1.26.27-2.52.07-3.77-.21-.08-.02-.18.07-.26.12-2,1.28-3.87,2.73-5.81,4.43,1.36.3,2.36-.36,2.81-1.07,1.43-2.25,3.16-2.86,5.27-1.56.26.16.56.24.43.62-.1.29-.43.34-.62.27-1.24-.44-1.72.16-2.55,1.1-1,1.14-.71,1.31.33,1.78.35.16.9.33.63.96-.19.45-.35.95-.98.94-.29,0-.59,0-.88.01-1.96.06-2.45.45-2.73,2.16-.02.09-.03.21-.09.27-.9.99-1.79,2-2.68,2.98-.76.83-1,1.63-.98,2.56.01.91.84,1.41,1.5.96.89-.62,1.88-1.12,2.85-1.64,1.61-.87,3.17-1.81,4.18-3.5-.53-2.71,1.15-4.56,2.54-6.51Z"/>
        <path class="cls-3" d="M114.51,144.8c.2-1.03-.26-1.92-.41-2.87-.09-.57-.91-.4-1.37-.65-.51-.28-.81-.68-.98-1.21-.03-.1-.17-.17-.25-.24-.38.27-.39.85-.9.88-.81-.63,1.55-2.81-1.25-2.4,0,.89-.19,1.71-.49,2.56-.83,2.39-1.49,4.85-2.3,7.25-.18.53-.29,1.02-.27,1.43.03.7.44,1.2,1.55,1.42,3.88-.45,5.95-2.4,6.67-6.17Z"/>
        <path class="cls-7" d="M50.75,156.38c.06.16.32.07.48-.06-.04-.05-.09-.1-.13-.15-.13.06-.44-.04-.35.21Z"/>
        <path class="cls-5" d="M161.36,30.87h0c-.06.1-.24.17-.21.29,0,.04.04.08.11.13.02.01.17-.16.26-.24.46-.12,1.17.44,1.4-.47-.15-.04-.3-.06-.44-.07-.42-.02-.79.08-1.13.36Z"/>
        <path class="cls-3" d="M151.48,37.54s0,0,0,0c-.03-.02-.06-.04-.09-.05.03.02.06.04.08.06Z"/>
        <path class="cls-7" d="M57.77,124.21c-.85-1.21-2.25-1.29-3.3-.69-1.26.72-2.44.57-3.67.36-1.08-.18-1.99.02-2.95.53-2.26,1.2-4.66,1.87-7.32,1.63.28-.47,1.18-.31,1-.95-.18-.65-.89-.49-1.4-.49-1.47-.02-2.94.04-4.42.01-1.19-.03-1.72.26-.72,1.48-1.4-.02-2.72-.37-3.77.69-.5.51-1.03,1.09-.52,1.78.41.55.95,1.03,1.86.53,1.11-.61,2.44-.69,3.58-.27.9.33,1.78.36,2.66.55,1.36.31,2.5.3,3.77-.37.61-.32,1.66-.27,2.3.05,1.7.84,3.24.29,4.74-.33,1.46-.6,3.26-.33,4.34.92,1,1.15,2.9,1.08,3.83-.31-1.12.27-2.22.55-2.86-.57-.35-.6-.72-1.03-1.44-1.04-.27,0-.51-.11-.58-.36-.09-.34.15-.55.41-.7.8-.43,1.67-.56,2.56-.56,1.47,0,2.95,0,4.42,0-.8-.87-1.88-.99-2.52-1.91Z"/>
        <path class="cls-8" d="M59.73,76.74c.08.02.16.03.24.05-.06-.06-.11-.11-.17-.17-.02.04-.05.08-.07.12Z"/>
        <polygon class="cls-8" points="59.98 76.8 59.98 76.79 59.97 76.79 59.98 76.8"/>
      </g>
    </g>
  </g>
</svg>