<?xml version="1.0" encoding="UTF-8"?>
<svg xmlns="http://www.w3.org/2000/svg" version="1.1" viewBox="0 0 256 256">
  <defs>
    <style>
      .cls-1 {
        fill: #874f41;
      }

      .cls-2 {
        fill: #fbe9d0;
      }

      .cls-3 {
        fill: #90aead;
      }
    </style>
  </defs>
  <!-- Generator: Adobe Illustrator 28.7.1, SVG Export Plug-In . SVG Version: 1.2.0 Build 142)  -->
  <g>
    <g id="Layer_1">
      <ellipse class="cls-2" cx="124.61" cy="128" rx="119.94" ry="124.88"/>
      <g>
        <path class="cls-1" d="M171.63,79.76c-15.18,1.82-19.04,3.64-27.2,21.82-6.12,13.33-37.39,81.01-48.5,106.06h-7.48c-13.37-32.53-32.86-79.8-45.78-109.7-6.35-14.95-10.2-16.97-24.02-18.18v-5.66h57.56v5.66c-16.77,1.62-17.68,4.04-14.5,11.52,5.67,14.75,22.21,54.95,36.49,88.49,12.01-26.06,26.97-58.99,37.62-84.45,4.99-11.72,2.27-13.54-16.32-15.56v-5.66h52.12v5.66Z"/>
        <path class="cls-3" d="M120.44,123.13l33.44-10.11,1.12,3.72c-9.49,3.88-10.96,5.34-7.39,17.17l6.91,22.86c2.42-1.02,4.66-4.02,7.17-8.84,4.89-9.16,10.55-20.74,14.22-29.39,2.39-5.65,1.49-7.27-4.13-6.44l-3.63.66-1.12-3.72,30.44-9.2,1.12,3.72c-9.03,4.04-12.09,5.69-17.71,17.39-2.59,4.99-9.31,18.04-14.79,28.84,13.14,9.08,32.18,21.89,40.91,27.23,8.6,5.38,10.55,5.95,18.59,4.53l1.12,3.72-20.04,6.06c-13.14-8.65-27.18-18.47-42.84-29.11-4.01-2.85-6.22-2.47-8.18-1.73l7.63,25.25c3.5,11.56,4.9,12.15,15.58,9.94l1.12,3.72-33.44,10.11-1.12-3.72c9.99-4.04,10.71-5.27,7.22-16.83l-15.67-51.83c-3.62-11.96-4.77-12.63-15.41-10.28l-1.12-3.72Z"/>
      </g>
    </g>
  </g>
</svg>